<svg xmlns="http://www.w3.org/2000/svg" class="svg-icon security-1" viewBox="0 0 147.8 111.5">
    <g data-name="Слой 2">
        <g data-name="Слой 1">
            <path class="cls-1" fill="#ce1e1d" d="M146.25,49.91l-83.51-48a15.13,15.13,0,0,0-19.5,4.4L27.06,29.53A13.57,13.57,0,0,0,31.35,49L49,59.22l-3.18,4.27a13.22,13.22,0,0,0,.15,16.14l-4.69,7.09H18.47V77.4a3.06,3.06,0,0,0-3.08-3.07H3.08A3.06,3.06,0,0,0,0,77.4v31a3.09,3.09,0,0,0,3.08,3.1H15.4a3.09,3.09,0,0,0,3.08-3.1V105.3H41.24A18.4,18.4,0,0,0,56.62,97l5-7.62a13.88,13.88,0,0,0,3,.4,14.08,14.08,0,0,0,12-6.86L80,77.27l26.21,15.22a3,3,0,0,0,1.54.41,3.06,3.06,0,0,0,2.75-1.71l2.28-4.6c.37,0,.73.11,1.12.11A21.65,21.65,0,0,0,135.48,65,20.13,20.13,0,0,0,135,61l11.09-5.58a3.11,3.11,0,0,0,.15-5.47ZM12.32,105.3H6.16V80.53h6.16ZM51.49,93.6a12.27,12.27,0,0,1-10.25,5.52H18.47V92.93H41.24a6.12,6.12,0,0,0,5.12-2.76l4.26-6.44,5.29,3.19ZM71.37,79.79a8.07,8.07,0,0,1-10.8,2.72l-7.81-4.71A7.26,7.26,0,0,1,50.7,67.25l3.63-4.86L74.7,74.21Zm35.11,5.72L34.42,43.68a7.34,7.34,0,0,1-2.32-10.53L39.84,22,116,66.27Zm9.45-5.17,6.45-13,6.84-3.44c0,.38.1.77.1,1.14A15.43,15.43,0,0,1,115.93,80.33Zm4.26-18.81L43.38,17l4.9-7a8.63,8.63,0,0,1,11.4-2.57L138.2,52.47Zm-18.58,6.61a3.1,3.1,0,1,0,3.08,3.1A3.09,3.09,0,0,0,101.61,68.14Z"></path>
        </g>
    </g>
</svg>