<svg xmlns="http://www.w3.org/2000/svg" class="svg-icon security-2" viewBox="0 0 110.24 123.5">
    <g data-name="Слой 2">
        <g data-name="Слой 1">
            <path class="cls-1" fill="#ce1e1d" d="M86.91,57.76a9.35,9.35,0,1,0,9.35-9.39A9.37,9.37,0,0,0,86.91,57.76Zm14,0a4.68,4.68,0,1,1-4.68-4.7A4.67,4.67,0,0,1,100.93,57.77Zm0,13.12H91.46a9.34,9.34,0,0,0-9.22,9.42V93.39a6.58,6.58,0,0,0,4.87,6.37l.51.17v17.72a5.78,5.78,0,0,0,5.72,5.84h5.81a5.78,5.78,0,0,0,5.72-5.84V99.84l.51-.17a6.68,6.68,0,0,0,4.87-6.37V80.22A9.5,9.5,0,0,0,100.94,70.89Zm4.78,22.42h-.09a2,2,0,0,1-1.45,1.92l-.68.17a4.36,4.36,0,0,0-3.16,4.19v18a1.23,1.23,0,0,1-1.2,1.22H93.34a1.23,1.23,0,0,1-1.2-1.22v-18A4.21,4.21,0,0,0,89,95.4l-.68-.17a2,2,0,0,1-1.45-1.92V80.22a4.79,4.79,0,0,1,4.7-4.8H101a4.79,4.79,0,0,1,4.7,4.8Zm2.84-51.71A41.49,41.49,0,0,0,95,10.93h0A41.43,41.43,0,0,0,67,0h0A41.41,41.41,0,0,0,39.32,10.56a2.6,2.6,0,0,0-.44.35c-.06.06-.11.13-.16.19A41.48,41.48,0,0,0,25.38,41.59V109H2.6a2.6,2.6,0,0,0,0,5.2H26.95a2.59,2.59,0,0,0,1,.21,2.37,2.37,0,0,0,1.17-.21H65.94a2.6,2.6,0,0,0,3.63-2.39V41.59ZM103,36.39H73.24l20-20A36.29,36.29,0,0,1,103,36.39ZM69.56,5.3a36.19,36.19,0,0,1,19.79,7.63L69.56,32.72Zm-5.2,0V32.72L44.58,12.93A36.19,36.19,0,0,1,64.36,5.3ZM40.72,16.42l20,20H31A36.29,36.29,0,0,1,40.72,16.42ZM30.57,109V41.59H64.36V109Z"></path>
        </g>
    </g>
</svg>