<svg xmlns="http://www.w3.org/2000/svg" class="svg-icon security-3" viewBox="0 0 95.39 118.5">
    <g data-name="Слой 2">
        <g data-name="Слой 1">
            <path class="cls-1" fill="#ce1e1d" d="M73,88.56H70.29a.67.67,0,0,0-.67.67v15.43a.67.67,0,0,1-.54.66L4.82,113.61A.67.67,0,0,1,4,113V5.54a.67.67,0,0,1,.8-.66l64.26,8.28a.67.67,0,0,1,.54.66V29.26a.67.67,0,0,0,.67.67H73a.67.67,0,0,0,.67-.67V10.51a.67.67,0,0,0-.54-.66L.8,0A.67.67,0,0,0,0,.67V117.83a.67.67,0,0,0,.8.66l72.3-9.85a.67.67,0,0,0,.54-.66V89.23A.67.67,0,0,0,73,88.56ZM15.16,18.27l43.54,3.52a.67.67,0,0,1,.56.66v6.81a.67.67,0,0,0,.67.67h2.68a.67.67,0,0,0,.67-.67V19a.67.67,0,0,0-.56-.66l-51.58-4.8a.67.67,0,0,0-.78.66v90a.67.67,0,0,0,.78.66l51.58-4.8a.67.67,0,0,0,.56-.66V89.23a.67.67,0,0,0-.67-.67H59.93a.67.67,0,0,0-.67.67V96a.67.67,0,0,1-.56.66l-43.54,3.52a.67.67,0,0,1-.78-.66V18.94A.67.67,0,0,1,15.16,18.27ZM68.73,36.2a11.28,11.28,0,0,0-5.45,1.24l-.63.32a7.8,7.8,0,0,1-3.39,1.08c-.26,0-.54,0-.84,0h-.28a7.8,7.8,0,0,1-4-1.1,11.55,11.55,0,0,0-5.39-1.54.68.68,0,0,0-.7.67v2.68a.68.68,0,0,0,.65.67,7.73,7.73,0,0,1,3.58,1.09,11.67,11.67,0,0,0,5.8,1.55h.28l.84,0a10.93,10.93,0,0,0,4-.93c.44-.19.84-.4,1.22-.59a7.79,7.79,0,0,1,4.24-1.11c.32,0,.61,0,.89,0A7.82,7.82,0,0,1,73,41.33l.67.34a11.29,11.29,0,0,0,5.41,1.22,11.45,11.45,0,0,0,4.55-.83c.56-.23,1.06-.48,1.53-.73a9.09,9.09,0,0,1,2.23-.9V44.9a.67.67,0,0,0,1.14.47l6.69-6.69a.67.67,0,0,0,0-.95l-6.69-6.68a.67.67,0,0,0-1.14.47v4.25a.68.68,0,0,1-.56.65,11.56,11.56,0,0,0-3.2,1.16l-.31.16a8.65,8.65,0,0,1-8.48,0c-.37-.19-.76-.39-1.17-.58a10.93,10.93,0,0,0-4-1C69.34,36.21,69,36.2,68.73,36.2ZM88.51,52.09a.67.67,0,0,0-1.14.47v4.25a.68.68,0,0,1-.56.66,11.54,11.54,0,0,0-3.2,1.16l-.31.16a8.67,8.67,0,0,1-8.48,0c-.37-.19-.75-.39-1.17-.58a10.93,10.93,0,0,0-4-.95c-.28,0-.57,0-.89,0a11.3,11.3,0,0,0-5.45,1.24l-.63.32a7.81,7.81,0,0,1-3.39,1.07c-.26,0-.54,0-.84,0h-.28a7.82,7.82,0,0,1-4-1.1,11.54,11.54,0,0,0-5.39-1.54.68.68,0,0,0-.7.67v2.68a.68.68,0,0,0,.65.67,7.75,7.75,0,0,1,3.58,1.09,11.67,11.67,0,0,0,5.8,1.55h.28l.84,0a10.93,10.93,0,0,0,4-.93c.43-.19.84-.4,1.22-.59a7.8,7.8,0,0,1,4.24-1.11c.32,0,.61,0,.89,0A7.82,7.82,0,0,1,73,62.37l.67.34a11.3,11.3,0,0,0,5.41,1.22,11.42,11.42,0,0,0,4.55-.83c.56-.23,1.06-.48,1.53-.73a9.17,9.17,0,0,1,2.23-.9v4.47a.67.67,0,0,0,1.14.47l6.69-6.69a.67.67,0,0,0,0-.95Zm0,21a.67.67,0,0,0-1.14.47v4.25a.68.68,0,0,1-.56.65,11.56,11.56,0,0,0-3.2,1.16l-.31.16a8.67,8.67,0,0,1-8.48,0c-.37-.19-.75-.39-1.17-.58a10.93,10.93,0,0,0-4-.95c-.28,0-.57,0-.89,0a11.3,11.3,0,0,0-5.45,1.24l-.63.32a7.8,7.8,0,0,1-3.39,1.07c-.26,0-.54,0-.84,0h-.28a7.81,7.81,0,0,1-4-1.1,11.56,11.56,0,0,0-5.39-1.54.68.68,0,0,0-.7.67v2.68a.68.68,0,0,0,.65.67,7.73,7.73,0,0,1,3.58,1.09,11.67,11.67,0,0,0,5.8,1.55h.28c.3,0,.57,0,.84,0a10.93,10.93,0,0,0,4-.93c.43-.19.84-.4,1.22-.59a7.8,7.8,0,0,1,4.24-1.11c.32,0,.61,0,.89,0A7.81,7.81,0,0,1,73,83.41l.67.34A11.29,11.29,0,0,0,79.05,85a11.43,11.43,0,0,0,4.55-.83c.56-.23,1.06-.48,1.53-.73a9.14,9.14,0,0,1,2.23-.9V87a.67.67,0,0,0,1.14.47l6.69-6.69a.67.67,0,0,0,0-.95Z"></path>
        </g>
    </g>
</svg>