<svg version="1.1"
    xmlns="http://www.w3.org/2000/svg"
    xmlns:xlink="http://www.w3.org/1999/xlink">
    <symbol id="logo-5" viewBox="0 0 195 273" fill="none">
        <g  viewBox="0 0 195 273">
            <path d="M0 0V272.948H116.948L194.897 77.9779V0H0Z" fill="#ED1C24"></path>
            <path fill-rule="evenodd" clip-rule="evenodd" d="M24.8135 42.782L31.9844 65.231V65.1794H38.6396L30.6436 41.4919C35.1826 39.376 36.9365 35.1442 36.9365 27.8677C36.9365 16.4626 32.5 13.0049 24.6074 13.0049H12.7939V65.231H19.0879V42.782H24.8135ZM19.0879 18.6301H24.6592C29.5088 18.6301 30.5918 22.3973 30.5918 27.9193C30.5918 33.4929 29.5088 37.2086 24.6592 37.2086H19.0879V18.6301Z" fill="white"></path>
            <path d="M46.1191 65.231V13.0049H66.2898V18.6301H52.4128V36.1764H64.381V41.8015H52.4128V59.5543H66.2898V65.231H46.1191Z" fill="white"></path>
            <path fill-rule="evenodd" clip-rule="evenodd" d="M86.0996 65.231C90.2783 65.231 93.0645 63.6828 95.0244 61.567C98.6357 57.6448 98.6875 51.9681 98.6875 39.118C98.6875 26.2679 98.6357 20.5396 95.0244 16.669C93.0645 14.5532 90.2783 13.0049 86.0996 13.0049H74.0283V65.231H86.0996ZM85.8936 18.6817C87.957 18.6817 89.4014 19.4558 90.2783 20.6428C92.1875 23.1199 92.3936 27.1968 92.3936 39.1696C92.3936 51.1424 92.1875 55.1677 90.2783 57.6448C89.4014 58.7802 87.957 59.6059 85.8936 59.6059H80.3223V18.6817H85.8936Z" fill="white"></path>
            <path d="M106.322 13.0049V27.9193H112.616V18.6301H123.707L105.084 65.231H111.687L130.465 18.3721V13.0049H106.322Z" fill="white"></path>
        </g>
    </symbol>
    <!-- <symbol id="security-4" viewBox="0 0 130.04 113.5">
        <g data-name="Слой 1">
            <path fill="#ce1e1d" class="cls-1" fill="#ce1e1d" d="M52.94,14.41H60L60,13.33a3.8,3.8,0,0,0-3.81-3.85l-1.84,0H52.11A3.89,3.89,0,0,0,48,13.64V65.81A3.89,3.89,0,0,0,51.81,70c.75,0,1.49,0,2.24,0s1.49,0,2.24,0A3.81,3.81,0,0,0,60,66.14l.06-1.09H52.94ZM117.65,0H12.4A12.48,12.48,0,0,0,0,12.57v76a12.5,12.5,0,0,0,12.4,12.57H117.64A12.5,12.5,0,0,0,130,88.54v-76A12.48,12.48,0,0,0,117.65,0ZM125,88.54A7.41,7.41,0,0,1,117.64,96H12.4A7.41,7.41,0,0,1,5,88.54V78.61H125Zm0-15.08H5V12.57A7.43,7.43,0,0,1,12.4,5.12H117.65A7.43,7.43,0,0,1,125,12.57ZM64.89,93.28h.17a5.2,5.2,0,0,0,5-5.09,5.43,5.43,0,0,0-1.5-3.92A4.89,4.89,0,0,0,65,82.73a5.28,5.28,0,0,0-.13,10.55Zm20.76,15.1H44.39a1.11,1.11,0,0,0-1.11,1.12v2.88a1.11,1.11,0,0,0,1.11,1.12H85.65a1.11,1.11,0,0,0,1.11-1.12v-2.88A1.11,1.11,0,0,0,85.65,108.37Zm0-69.64a5.76,5.76,0,0,0-4.93,6.44,5.79,5.79,0,0,0,1.82,3.57,5.5,5.5,0,0,0,3,1.44,5.34,5.34,0,0,0,.85.07,6,6,0,0,0,.74-.05,5.6,5.6,0,0,0,3-1.39,5.65,5.65,0,0,0,8.16-4,5.47,5.47,0,0,0,.06-1.84,5.66,5.66,0,0,0-9.39-3.62A5.65,5.65,0,0,0,85.64,38.73Zm3.61,3,.53-.62a3.82,3.82,0,0,1,2.44-1.31,3.74,3.74,0,0,1,2.85.8,3.82,3.82,0,0,1,1.46,2.61,3.6,3.6,0,0,1,0,1.24,3.87,3.87,0,0,1-3.31,3.15,3.81,3.81,0,0,1-2.68-.68l-.67-.48-.54.63a3.84,3.84,0,0,1-2.44,1.33,3.55,3.55,0,0,1-1.07,0,3.72,3.72,0,0,1-2-1,3.93,3.93,0,0,1-1.24-2.45,4,4,0,0,1,0-1.22,3.9,3.9,0,0,1,3.32-3.14,3.88,3.88,0,0,1,2.71.67ZM58.19,28.28v1.95l4.08-.55L62,27.78Zm.34,9.47,30.69-3.94L89,31.9,58.53,35.78ZM87.85,24.32,68.2,26.84l.24,1.93,19.65-2.52Zm17.52-5.68c-.52-4-3.41-6.39-7.45-5.9l-31.68,4-8.86,1.14L56.5,18v5l35.32-4.5c2.22-.3,4.44-.57,6.71-.86.91-.12,1.75-.29,2,1.62l3.76,30.29c.19,1.51-.18,2-1.65,2.19l-13.8,1.75.1.05L56.5,57.66v5l41.7-5.28v0l5-.66c4.15-.52,6.41-3.47,5.9-7.7Z"></path>
        </g>
    </symbol> -->
    <!-- <symbol id="quote-1" viewBox="0 0 536.09 15.54">
        <g data-name="Слой 2">
            <g data-name="Слой 1">
                <path fill="#ce1e1d" class="cls-1" d="M0,15.54H7L7.6,0H2.84Zm12.18,0h7L19.78,0H15ZM40.09,8v2h496V8Z"></path>
            </g>
        </g>
    </symbol> -->
    <symbol id="location-1" viewBox="0 0 77.5 84.92">
        <g data-name="Слой 1">
            <path fill="#ff0000" class="cls-1" d="M0,84.92H77.5V81.55H0ZM39.89,0H37.61V6.46h2.28ZM34.5,7.08,32,1.11,29.93,2,32.4,8ZM29.77,9.71,25.22,5.15,23.6,6.76l4.55,4.57ZM47.73,31l4.55,4.57,1.61-1.62-4.55-4.57ZM26.4,14,20.45,11.5l-.87,2.11,5.95,2.47Zm31.52,13.1L52,24.6l-.87,2.11,5.95,2.47Zm-33-7.87H18.47v2.29h6.44ZM59,19.2H52.59v2.29H59ZM19.58,27.07l.87,2.11,5.95-2.47-.87-2.11ZM52,16.08l5.95-2.47L57,11.5,51.1,14ZM29.77,31l-1.61-1.62L23.6,33.91l1.61,1.62ZM53.9,6.76,52.28,5.15,47.73,9.71l1.61,1.62ZM47.56,2l-2.11-.88L43,7.07l2.11.88ZM34.4,14.33l-7.23,2.15,4.6,6L31.57,30l7.1-2.54L45.78,30l-.22-7.56,4.59-6-7.23-2.13L38.65,8.08ZM41,16.94l4,1.18L42.5,21.45l.12,4.2-3.95-1.4-3.94,1.41.11-4.2-2.56-3.32,4-1.19,2.36-3.46Zm29.63,40.9-6.84-4.11V65.85h-7.6V53.72L50.6,57.1,38.75,29.38,26.9,57.11l-5.62-3.38V65.85h-7.6V53.72L6.84,57.84,0,53.72V76.5H3V59.1l3.8,2.29,3.8-2.29v9.8H24.31V59.1l3.8,2.29,3.8-2.29v9.8H45.59V59.1l3.8,2.29,3.8-2.29v9.8H66.86V59.1l3.8,2.29,3.8-2.29V76.5h3V53.72ZM46.55,56.13l-4-2.41V65.85H35V53.72L31.2,56l-.69.42,8.24-19.28,5,11.69h0l.15.39L47,56.39Z"></path>
        </g>
    </symbol>
    <symbol id="security-1" viewBox="0 0 147.8 111.5">
        <g data-name="Слой 1">
            <path class="cls-1" fill="#ce1e1d" d="M146.25,49.91l-83.51-48a15.13,15.13,0,0,0-19.5,4.4L27.06,29.53A13.57,13.57,0,0,0,31.35,49L49,59.22l-3.18,4.27a13.22,13.22,0,0,0,.15,16.14l-4.69,7.09H18.47V77.4a3.06,3.06,0,0,0-3.08-3.07H3.08A3.06,3.06,0,0,0,0,77.4v31a3.09,3.09,0,0,0,3.08,3.1H15.4a3.09,3.09,0,0,0,3.08-3.1V105.3H41.24A18.4,18.4,0,0,0,56.62,97l5-7.62a13.88,13.88,0,0,0,3,.4,14.08,14.08,0,0,0,12-6.86L80,77.27l26.21,15.22a3,3,0,0,0,1.54.41,3.06,3.06,0,0,0,2.75-1.71l2.28-4.6c.37,0,.73.11,1.12.11A21.65,21.65,0,0,0,135.48,65,20.13,20.13,0,0,0,135,61l11.09-5.58a3.11,3.11,0,0,0,.15-5.47ZM12.32,105.3H6.16V80.53h6.16ZM51.49,93.6a12.27,12.27,0,0,1-10.25,5.52H18.47V92.93H41.24a6.12,6.12,0,0,0,5.12-2.76l4.26-6.44,5.29,3.19ZM71.37,79.79a8.07,8.07,0,0,1-10.8,2.72l-7.81-4.71A7.26,7.26,0,0,1,50.7,67.25l3.63-4.86L74.7,74.21Zm35.11,5.72L34.42,43.68a7.34,7.34,0,0,1-2.32-10.53L39.84,22,116,66.27Zm9.45-5.17,6.45-13,6.84-3.44c0,.38.1.77.1,1.14A15.43,15.43,0,0,1,115.93,80.33Zm4.26-18.81L43.38,17l4.9-7a8.63,8.63,0,0,1,11.4-2.57L138.2,52.47Zm-18.58,6.61a3.1,3.1,0,1,0,3.08,3.1A3.09,3.09,0,0,0,101.61,68.14Z"></path>
        </g>
    </symbol>
    <symbol id="security-2" viewBox="0 0 110.24 123.5">
        <g data-name="Слой 1">
            <path class="cls-1" fill="#ce1e1d" d="M86.91,57.76a9.35,9.35,0,1,0,9.35-9.39A9.37,9.37,0,0,0,86.91,57.76Zm14,0a4.68,4.68,0,1,1-4.68-4.7A4.67,4.67,0,0,1,100.93,57.77Zm0,13.12H91.46a9.34,9.34,0,0,0-9.22,9.42V93.39a6.58,6.58,0,0,0,4.87,6.37l.51.17v17.72a5.78,5.78,0,0,0,5.72,5.84h5.81a5.78,5.78,0,0,0,5.72-5.84V99.84l.51-.17a6.68,6.68,0,0,0,4.87-6.37V80.22A9.5,9.5,0,0,0,100.94,70.89Zm4.78,22.42h-.09a2,2,0,0,1-1.45,1.92l-.68.17a4.36,4.36,0,0,0-3.16,4.19v18a1.23,1.23,0,0,1-1.2,1.22H93.34a1.23,1.23,0,0,1-1.2-1.22v-18A4.21,4.21,0,0,0,89,95.4l-.68-.17a2,2,0,0,1-1.45-1.92V80.22a4.79,4.79,0,0,1,4.7-4.8H101a4.79,4.79,0,0,1,4.7,4.8Zm2.84-51.71A41.49,41.49,0,0,0,95,10.93h0A41.43,41.43,0,0,0,67,0h0A41.41,41.41,0,0,0,39.32,10.56a2.6,2.6,0,0,0-.44.35c-.06.06-.11.13-.16.19A41.48,41.48,0,0,0,25.38,41.59V109H2.6a2.6,2.6,0,0,0,0,5.2H26.95a2.59,2.59,0,0,0,1,.21,2.37,2.37,0,0,0,1.17-.21H65.94a2.6,2.6,0,0,0,3.63-2.39V41.59ZM103,36.39H73.24l20-20A36.29,36.29,0,0,1,103,36.39ZM69.56,5.3a36.19,36.19,0,0,1,19.79,7.63L69.56,32.72Zm-5.2,0V32.72L44.58,12.93A36.19,36.19,0,0,1,64.36,5.3ZM40.72,16.42l20,20H31A36.29,36.29,0,0,1,40.72,16.42ZM30.57,109V41.59H64.36V109Z"></path>
        </g>
    </symbol>
    <symbol id="security-3" viewBox="0 0 95.39 118.5">
        <g data-name="Слой 1">
            <path class="cls-1" fill="#ce1e1d" d="M73,88.56H70.29a.67.67,0,0,0-.67.67v15.43a.67.67,0,0,1-.54.66L4.82,113.61A.67.67,0,0,1,4,113V5.54a.67.67,0,0,1,.8-.66l64.26,8.28a.67.67,0,0,1,.54.66V29.26a.67.67,0,0,0,.67.67H73a.67.67,0,0,0,.67-.67V10.51a.67.67,0,0,0-.54-.66L.8,0A.67.67,0,0,0,0,.67V117.83a.67.67,0,0,0,.8.66l72.3-9.85a.67.67,0,0,0,.54-.66V89.23A.67.67,0,0,0,73,88.56ZM15.16,18.27l43.54,3.52a.67.67,0,0,1,.56.66v6.81a.67.67,0,0,0,.67.67h2.68a.67.67,0,0,0,.67-.67V19a.67.67,0,0,0-.56-.66l-51.58-4.8a.67.67,0,0,0-.78.66v90a.67.67,0,0,0,.78.66l51.58-4.8a.67.67,0,0,0,.56-.66V89.23a.67.67,0,0,0-.67-.67H59.93a.67.67,0,0,0-.67.67V96a.67.67,0,0,1-.56.66l-43.54,3.52a.67.67,0,0,1-.78-.66V18.94A.67.67,0,0,1,15.16,18.27ZM68.73,36.2a11.28,11.28,0,0,0-5.45,1.24l-.63.32a7.8,7.8,0,0,1-3.39,1.08c-.26,0-.54,0-.84,0h-.28a7.8,7.8,0,0,1-4-1.1,11.55,11.55,0,0,0-5.39-1.54.68.68,0,0,0-.7.67v2.68a.68.68,0,0,0,.65.67,7.73,7.73,0,0,1,3.58,1.09,11.67,11.67,0,0,0,5.8,1.55h.28l.84,0a10.93,10.93,0,0,0,4-.93c.44-.19.84-.4,1.22-.59a7.79,7.79,0,0,1,4.24-1.11c.32,0,.61,0,.89,0A7.82,7.82,0,0,1,73,41.33l.67.34a11.29,11.29,0,0,0,5.41,1.22,11.45,11.45,0,0,0,4.55-.83c.56-.23,1.06-.48,1.53-.73a9.09,9.09,0,0,1,2.23-.9V44.9a.67.67,0,0,0,1.14.47l6.69-6.69a.67.67,0,0,0,0-.95l-6.69-6.68a.67.67,0,0,0-1.14.47v4.25a.68.68,0,0,1-.56.65,11.56,11.56,0,0,0-3.2,1.16l-.31.16a8.65,8.65,0,0,1-8.48,0c-.37-.19-.76-.39-1.17-.58a10.93,10.93,0,0,0-4-1C69.34,36.21,69,36.2,68.73,36.2ZM88.51,52.09a.67.67,0,0,0-1.14.47v4.25a.68.68,0,0,1-.56.66,11.54,11.54,0,0,0-3.2,1.16l-.31.16a8.67,8.67,0,0,1-8.48,0c-.37-.19-.75-.39-1.17-.58a10.93,10.93,0,0,0-4-.95c-.28,0-.57,0-.89,0a11.3,11.3,0,0,0-5.45,1.24l-.63.32a7.81,7.81,0,0,1-3.39,1.07c-.26,0-.54,0-.84,0h-.28a7.82,7.82,0,0,1-4-1.1,11.54,11.54,0,0,0-5.39-1.54.68.68,0,0,0-.7.67v2.68a.68.68,0,0,0,.65.67,7.75,7.75,0,0,1,3.58,1.09,11.67,11.67,0,0,0,5.8,1.55h.28l.84,0a10.93,10.93,0,0,0,4-.93c.43-.19.84-.4,1.22-.59a7.8,7.8,0,0,1,4.24-1.11c.32,0,.61,0,.89,0A7.82,7.82,0,0,1,73,62.37l.67.34a11.3,11.3,0,0,0,5.41,1.22,11.42,11.42,0,0,0,4.55-.83c.56-.23,1.06-.48,1.53-.73a9.17,9.17,0,0,1,2.23-.9v4.47a.67.67,0,0,0,1.14.47l6.69-6.69a.67.67,0,0,0,0-.95Zm0,21a.67.67,0,0,0-1.14.47v4.25a.68.68,0,0,1-.56.65,11.56,11.56,0,0,0-3.2,1.16l-.31.16a8.67,8.67,0,0,1-8.48,0c-.37-.19-.75-.39-1.17-.58a10.93,10.93,0,0,0-4-.95c-.28,0-.57,0-.89,0a11.3,11.3,0,0,0-5.45,1.24l-.63.32a7.8,7.8,0,0,1-3.39,1.07c-.26,0-.54,0-.84,0h-.28a7.81,7.81,0,0,1-4-1.1,11.56,11.56,0,0,0-5.39-1.54.68.68,0,0,0-.7.67v2.68a.68.68,0,0,0,.65.67,7.73,7.73,0,0,1,3.58,1.09,11.67,11.67,0,0,0,5.8,1.55h.28c.3,0,.57,0,.84,0a10.93,10.93,0,0,0,4-.93c.43-.19.84-.4,1.22-.59a7.8,7.8,0,0,1,4.24-1.11c.32,0,.61,0,.89,0A7.81,7.81,0,0,1,73,83.41l.67.34A11.29,11.29,0,0,0,79.05,85a11.43,11.43,0,0,0,4.55-.83c.56-.23,1.06-.48,1.53-.73a9.14,9.14,0,0,1,2.23-.9V87a.67.67,0,0,0,1.14.47l6.69-6.69a.67.67,0,0,0,0-.95Z"></path>
        </g>
    </symbol>
    <symbol id="security-4" viewBox="0 0 130.04 113.5">
        <g data-name="Слой 1">
            <path fill="#ce1e1d" class="cls-1" d="M52.94,14.41H60L60,13.33a3.8,3.8,0,0,0-3.81-3.85l-1.84,0H52.11A3.89,3.89,0,0,0,48,13.64V65.81A3.89,3.89,0,0,0,51.81,70c.75,0,1.49,0,2.24,0s1.49,0,2.24,0A3.81,3.81,0,0,0,60,66.14l.06-1.09H52.94ZM117.65,0H12.4A12.48,12.48,0,0,0,0,12.57v76a12.5,12.5,0,0,0,12.4,12.57H117.64A12.5,12.5,0,0,0,130,88.54v-76A12.48,12.48,0,0,0,117.65,0ZM125,88.54A7.41,7.41,0,0,1,117.64,96H12.4A7.41,7.41,0,0,1,5,88.54V78.61H125Zm0-15.08H5V12.57A7.43,7.43,0,0,1,12.4,5.12H117.65A7.43,7.43,0,0,1,125,12.57ZM64.89,93.28h.17a5.2,5.2,0,0,0,5-5.09,5.43,5.43,0,0,0-1.5-3.92A4.89,4.89,0,0,0,65,82.73a5.28,5.28,0,0,0-.13,10.55Zm20.76,15.1H44.39a1.11,1.11,0,0,0-1.11,1.12v2.88a1.11,1.11,0,0,0,1.11,1.12H85.65a1.11,1.11,0,0,0,1.11-1.12v-2.88A1.11,1.11,0,0,0,85.65,108.37Zm0-69.64a5.76,5.76,0,0,0-4.93,6.44,5.79,5.79,0,0,0,1.82,3.57,5.5,5.5,0,0,0,3,1.44,5.34,5.34,0,0,0,.85.07,6,6,0,0,0,.74-.05,5.6,5.6,0,0,0,3-1.39,5.65,5.65,0,0,0,8.16-4,5.47,5.47,0,0,0,.06-1.84,5.66,5.66,0,0,0-9.39-3.62A5.65,5.65,0,0,0,85.64,38.73Zm3.61,3,.53-.62a3.82,3.82,0,0,1,2.44-1.31,3.74,3.74,0,0,1,2.85.8,3.82,3.82,0,0,1,1.46,2.61,3.6,3.6,0,0,1,0,1.24,3.87,3.87,0,0,1-3.31,3.15,3.81,3.81,0,0,1-2.68-.68l-.67-.48-.54.63a3.84,3.84,0,0,1-2.44,1.33,3.55,3.55,0,0,1-1.07,0,3.72,3.72,0,0,1-2-1,3.93,3.93,0,0,1-1.24-2.45,4,4,0,0,1,0-1.22,3.9,3.9,0,0,1,3.32-3.14,3.88,3.88,0,0,1,2.71.67ZM58.19,28.28v1.95l4.08-.55L62,27.78Zm.34,9.47,30.69-3.94L89,31.9,58.53,35.78ZM87.85,24.32,68.2,26.84l.24,1.93,19.65-2.52Zm17.52-5.68c-.52-4-3.41-6.39-7.45-5.9l-31.68,4-8.86,1.14L56.5,18v5l35.32-4.5c2.22-.3,4.44-.57,6.71-.86.91-.12,1.75-.29,2,1.62l3.76,30.29c.19,1.51-.18,2-1.65,2.19l-13.8,1.75.1.05L56.5,57.66v5l41.7-5.28v0l5-.66c4.15-.52,6.41-3.47,5.9-7.7Z"></path>
        </g>
    </symbol>
    <symbol id="scroll" viewBox="0 0 15.75 22.65">
        <g data-name="Слой 1">
            <path class="cls-1" d="M7.88,0A8,8,0,0,0,0,8.1v6.45a8,8,0,0,0,7.88,8.1,8,8,0,0,0,7.88-8.07V8.1A8,8,0,0,0,7.88,0Z"></path>
            <circle class="cls-2" cx="7.88" cy="6.48" r="1.32"></circle>
        </g>
    </symbol>
    <symbol id="arrow-form" viewBox="0 0 22 16">
        <g data-name="Слой 1">
            <path class="cls-1" fill="#ce1e1d" d="M21.7,7.25,14.85.31a1,1,0,0,0-1.47,0l-.62.63a1.07,1.07,0,0,0,0,1.5l4,4.06H1.07A1.06,1.06,0,0,0,0,7.53v.89A1.08,1.08,0,0,0,1.05,9.5H16.8l-4,4.08a1,1,0,0,0-.3.73,1.05,1.05,0,0,0,.3.74l.62.63a1,1,0,0,0,1.47,0L21.7,8.75a1.07,1.07,0,0,0,0-1.49Z"></path>
        </g>
    </symbol>
    <symbol id="red-seven" viewBox="0 0 84.82 634.41">
        <g data-name="Слой 1">
            <path fill="#3c3c3d" d="M27.9,574.22c-15.75,0-26.41,12.38-26.41,29.47v30.71H83.33V617.69H54.44V605.43l28.89-21.18V565.43L51.22,588.59A25.34,25.34,0,0,0,27.9,574.22Zm11.78,43.47H16.24v-14c0-7.55,4.71-12.38,11.66-12.38s11.78,4.58,11.78,12.38ZM68.2,538.83H47.49V510.72H33.23v28.11H16.62V500.56H1.49v55H83.33V499.08H68.2Zm-26-126C18,412.44,1.24,431.52,1.49,457.4v26.75H83.33V457.4C83.71,431.52,65.85,412.44,42.16,412.82Zm26,54.62H16.62v-9.91c0-16.72,9.67-27.49,25.55-27.49s26,11,26,27.49ZM60.27,309.24c-11,0-17.86,6.44-23.93,20.19l-4.09,9.29c-3.1,6.94-5.08,9.54-9.42,9.54-5.08,0-7.94-4.33-7.94-10.16,0-6.19,3.1-11.39,9.42-15.6l-8.8-11.39C6.08,316.17,0,325.58,0,338.09c0,15.48,9.18,27.12,23.19,27.12,10.91,0,18-7.31,23.56-19.82l4-8.79c3.6-7.8,5.33-10.4,10.17-10.4,5.58,0,9.05,4.33,9.05,11.64,0,8.92-4.59,14.74-11.9,20.06l8.68,11.52a35.62,35.62,0,0,0,18.1-31.58C84.82,321.5,75.27,309.24,60.27,309.24ZM1.49,239.47v55H83.33V238H68.2v39.75H47.49V249.63H33.23v28.11H16.62V239.47Zm0-68.3,49.6,20.31L1.49,211.91v18.95l83.33-36.53v-5.57L1.49,152.34ZM1.49,86v55H83.33V84.53H68.2v39.75H47.49V96.17H33.23v28.11H16.62V86Zm0-86V16.72H50.35L0,64.15V69.6H83.33V52.88H34.23L84.82,5.57V0Z"></path>
        </g>
    </symbol>
    <symbol id="quote-2" viewBox="0 0 528.68 15.54">
        <g data-name="Слой 1">
            <path fill="#ce1e1d" class="cls-1" d="M508.91,15.54h7L516.5,0h-4.76ZM523.93,0l-2.84,15.54h7L528.68,0ZM0,4H476V2H0Z"></path>
        </g>
    </symbol>
    <symbol id="quote-1" viewBox="0 0 536.09 15.54">
        <g data-name="Слой 1">
            <path fill="#ce1e1d" class="cls-1" d="M0,15.54H7L7.6,0H2.84Zm12.18,0h7L19.78,0H15ZM40.09,8v2h496V8Z"></path>
        </g>
    </symbol>
    <symbol id="contacts-lines" viewBox="0 0 472.27 524">
        <g data-name="Слой 1">
            <path stroke-miterlimit="10" fill-rule="evenodd" fill="none" stroke="#a0a0a0" class="cls-1" d="M50.5.5h421L260,482.5H50.5Z"></path>
            <path stroke-miterlimit="10" fill-rule="evenodd" fill="none" stroke="#a0a0a0" class="cls-1" d="M50.5,523.5H.5v-50"></path>
        </g>
    </symbol>
    <symbol id="arrow-slider-right" viewBox="0 0 100 100">
        <g data-name="Слой 1">
			<rect id="arrow-rect" class="cls-1" width="100" height="100" transform="translate(100 100) rotate(-180)"></rect>
			<path  id="arrow-path" d="M61.75,49.46a.75.75,0,0,1,0,1.08l-7.23,7.21a.77.77,0,0,1-1.1-1.09l5.91-5.89H38.79A.77.77,0,0,1,38,50a.76.76,0,0,1,.77-.76H59.33l-5.91-5.9a.77.77,0,0,1,0-1.08.77.77,0,0,1,1.1,0Z"></path>
		</g>
    </symbol>
    <symbol id="arrow-slider-left" viewBox="0 0 100 100">
        <g data-name="Слой 1">
			<rect class="cls-1" width="100" height="100"></rect>
			<path d="M45.48,42.25a.77.77,0,0,1,1.1,0,.77.77,0,0,1,0,1.08l-5.91,5.9H61.21A.76.76,0,0,1,62,50a.77.77,0,0,1-.77.78H40.67l5.91,5.89a.77.77,0,1,1-1.1,1.09l-7.23-7.21a.75.75,0,0,1,0-1.08Z"></path>
		</g>
    </symbol>
    <symbol id="contacts-phone" viewBox="0 0 28.5 27.1">
         <g data-name="Слой 1">
            <path fill="#ce1e1d" class="cls-1" d="M5.78,18a30.17,30.17,0,0,0,10.1,7.49,16.37,16.37,0,0,0,5.65,1.58h.4a4.8,4.8,0,0,0,3.63-1.48l0,0a14.77,14.77,0,0,1,1.14-1.12c.28-.25.56-.52.84-.79a2.62,2.62,0,0,0,0-4L24,16.27a3,3,0,0,0-2.09-.91,3.06,3.06,0,0,0-2.11.9l-2.12,2L17.08,18c-.24-.11-.46-.22-.65-.34A22.07,22.07,0,0,1,11.06,13a12.17,12.17,0,0,1-1.81-2.74c.56-.48,1.08-1,1.58-1.47l.55-.52a2.82,2.82,0,0,0,1-2,2.79,2.79,0,0,0-1-2L9.61,2.58,9,2c-.39-.38-.8-.77-1.2-1.13A3,3,0,0,0,5.71,0,3.13,3.13,0,0,0,3.6.87L1.38,3A4.22,4.22,0,0,0,0,5.73a9.91,9.91,0,0,0,.82,4.49A25.88,25.88,0,0,0,5.78,18ZM1.47,5.85a2.91,2.91,0,0,1,.94-1.91L4.62,1.85a1.64,1.64,0,0,1,1.09-.48,1.55,1.55,0,0,1,1.07.49c.4.35.77.71,1.17,1.1l.62.6,1.77,1.67a1.49,1.49,0,0,1,.56,1,1.5,1.5,0,0,1-.56,1.05l-.55.53c-.55.53-1.07,1-1.64,1.5l0,0a1.06,1.06,0,0,0-.3,1.25l0,0a13.12,13.12,0,0,0,2.08,3.21,23.32,23.32,0,0,0,5.72,4.93,8.75,8.75,0,0,0,.78.4c.24.11.46.22.65.34l.07,0a1.3,1.3,0,0,0,.58.14,1.29,1.29,0,0,0,.88-.38l2.22-2.1a1.6,1.6,0,0,1,1.08-.5,1.52,1.52,0,0,1,1,.5l3.57,3.38a1.31,1.31,0,0,1,0,2.12c-.25.25-.51.49-.79.75a16.6,16.6,0,0,0-1.24,1.22,3.34,3.34,0,0,1-2.54,1h-.31a14.87,14.87,0,0,1-5.11-1.45A28.67,28.67,0,0,1,6.9,17.15,24.79,24.79,0,0,1,2.22,9.76,8.64,8.64,0,0,1,1.47,5.85Z"></path>
        </g>
    </symbol>
    <symbol id="logo-mobile" viewBox="0 0 79 40" fill="none">
        <path fill-rule="evenodd" clip-rule="evenodd" d="M7.89453 5.63013H4.19141V19.0732H7.89453C11.1095 19.0732 11.8417 16.364 11.8417 12.3255C11.8417 8.33936 11.1095 5.63013 7.89453 5.63013ZM12.7658 39.3716L7.99194 23.1116H4.19148V39.3716H0.000244141V1.53931H7.84523C13.1072 1.53931 16.0316 4.03623 16.0316 12.3255C16.0316 17.5855 14.8621 20.6685 11.8418 22.2085L17.1517 39.3716H12.7658Z" fill="#ED1D24"></path>
        <mask id="mask0" mask-type="alpha" maskUnits="userSpaceOnUse" x="22" y="1" width="14" height="39">
            <path fill-rule="evenodd" clip-rule="evenodd" d="M22.1685 1.53906H35.5674V39.372H22.1685V1.53906Z" fill="white"></path>
        </mask>
        <g mask="url(#mask0)">
            <path fill-rule="evenodd" clip-rule="evenodd" d="M22.1685 39.3719V1.53809H35.5674V5.63039H26.3583V18.3289H34.3006V22.4212H26.3583V35.2796H35.5674V39.3719H22.1685Z" fill="#ED1D24"></path>
        </g>
        <mask id="mask1" mask-type="alpha" maskUnits="userSpaceOnUse" x="40" y="1" width="18" height="39">
            <path fill-rule="evenodd" clip-rule="evenodd" d="M40.682 1.53906H57.1027V39.3728H40.682V1.53906Z" fill="white"></path>
        </mask>
        <g mask="url(#mask1)">
            <path fill-rule="evenodd" clip-rule="evenodd" d="M51.4993 7.06495C50.9138 6.21572 49.9405 5.6311 48.5763 5.6311H44.8732V35.2819H48.5763C49.9405 35.2819 50.9138 34.6973 51.4993 33.8465C52.7661 32.0403 52.9114 29.1173 52.9114 20.4557C52.9114 11.7942 52.7661 8.87264 51.4993 7.06495ZM54.6664 36.7157C53.3516 38.2557 51.4994 39.3727 48.7217 39.3727H40.682V1.53882H48.7217C51.4994 1.53882 53.3516 2.6542 54.6664 4.19574C57.0534 7.01266 57.1027 11.1573 57.1027 20.4557C57.1027 29.7542 57.0534 33.9004 54.6664 36.7157Z" fill="#ED1D24"></path>
        </g>
        <mask id="mask2" mask-type="alpha" maskUnits="userSpaceOnUse" x="61" y="1" width="18" height="39">
            <path fill-rule="evenodd" clip-rule="evenodd" d="M61.3636 1.53931H78.2029V39.373H61.3636V1.53931Z" fill="white"></path>
        </mask>
        <g mask="url(#mask2)">
            <path fill-rule="evenodd" clip-rule="evenodd" d="M62.1692 1.53931V12.3485H66.359V5.63008H73.7384L61.3636 39.3732H65.7481L78.2033 5.41777V1.53931H62.1692Z" fill="#ED1D24"></path>
        </g>
    </symbol>
</svg>