<svg xmlns="http://www.w3.org/2000/svg" class="svg-icon security-4" viewBox="0 0 130.04 113.5">
    <g data-name="Слой 2">
        <g data-name="Слой 1">
            <path fill="#ce1e1d" class="cls-1" fill="#ce1e1d"  d="M52.94,14.41H60L60,13.33a3.8,3.8,0,0,0-3.81-3.85l-1.84,0H52.11A3.89,3.89,0,0,0,48,13.64V65.81A3.89,3.89,0,0,0,51.81,70c.75,0,1.49,0,2.24,0s1.49,0,2.24,0A3.81,3.81,0,0,0,60,66.14l.06-1.09H52.94ZM117.65,0H12.4A12.48,12.48,0,0,0,0,12.57v76a12.5,12.5,0,0,0,12.4,12.57H117.64A12.5,12.5,0,0,0,130,88.54v-76A12.48,12.48,0,0,0,117.65,0ZM125,88.54A7.41,7.41,0,0,1,117.64,96H12.4A7.41,7.41,0,0,1,5,88.54V78.61H125Zm0-15.08H5V12.57A7.43,7.43,0,0,1,12.4,5.12H117.65A7.43,7.43,0,0,1,125,12.57ZM64.89,93.28h.17a5.2,5.2,0,0,0,5-5.09,5.43,5.43,0,0,0-1.5-3.92A4.89,4.89,0,0,0,65,82.73a5.28,5.28,0,0,0-.13,10.55Zm20.76,15.1H44.39a1.11,1.11,0,0,0-1.11,1.12v2.88a1.11,1.11,0,0,0,1.11,1.12H85.65a1.11,1.11,0,0,0,1.11-1.12v-2.88A1.11,1.11,0,0,0,85.65,108.37Zm0-69.64a5.76,5.76,0,0,0-4.93,6.44,5.79,5.79,0,0,0,1.82,3.57,5.5,5.5,0,0,0,3,1.44,5.34,5.34,0,0,0,.85.07,6,6,0,0,0,.74-.05,5.6,5.6,0,0,0,3-1.39,5.65,5.65,0,0,0,8.16-4,5.47,5.47,0,0,0,.06-1.84,5.66,5.66,0,0,0-9.39-3.62A5.65,5.65,0,0,0,85.64,38.73Zm3.61,3,.53-.62a3.82,3.82,0,0,1,2.44-1.31,3.74,3.74,0,0,1,2.85.8,3.82,3.82,0,0,1,1.46,2.61,3.6,3.6,0,0,1,0,1.24,3.87,3.87,0,0,1-3.31,3.15,3.81,3.81,0,0,1-2.68-.68l-.67-.48-.54.63a3.84,3.84,0,0,1-2.44,1.33,3.55,3.55,0,0,1-1.07,0,3.72,3.72,0,0,1-2-1,3.93,3.93,0,0,1-1.24-2.45,4,4,0,0,1,0-1.22,3.9,3.9,0,0,1,3.32-3.14,3.88,3.88,0,0,1,2.71.67ZM58.19,28.28v1.95l4.08-.55L62,27.78Zm.34,9.47,30.69-3.94L89,31.9,58.53,35.78ZM87.85,24.32,68.2,26.84l.24,1.93,19.65-2.52Zm17.52-5.68c-.52-4-3.41-6.39-7.45-5.9l-31.68,4-8.86,1.14L56.5,18v5l35.32-4.5c2.22-.3,4.44-.57,6.71-.86.91-.12,1.75-.29,2,1.62l3.76,30.29c.19,1.51-.18,2-1.65,2.19l-13.8,1.75.1.05L56.5,57.66v5l41.7-5.28v0l5-.66c4.15-.52,6.41-3.47,5.9-7.7Z"></path>
        </g>
    </g>
</svg>