<svg xmlns="http://www.w3.org/2000/svg" class="svg-icon loc-1-svg" viewBox="0 0 77.5 84.92">
    <g data-name="Слой 2">
        <g data-name="Слой 1">
            <path fill="#ff0000" class="cls-1" d="M0,84.92H77.5V81.55H0ZM39.89,0H37.61V6.46h2.28ZM34.5,7.08,32,1.11,29.93,2,32.4,8ZM29.77,9.71,25.22,5.15,23.6,6.76l4.55,4.57ZM47.73,31l4.55,4.57,1.61-1.62-4.55-4.57ZM26.4,14,20.45,11.5l-.87,2.11,5.95,2.47Zm31.52,13.1L52,24.6l-.87,2.11,5.95,2.47Zm-33-7.87H18.47v2.29h6.44ZM59,19.2H52.59v2.29H59ZM19.58,27.07l.87,2.11,5.95-2.47-.87-2.11ZM52,16.08l5.95-2.47L57,11.5,51.1,14ZM29.77,31l-1.61-1.62L23.6,33.91l1.61,1.62ZM53.9,6.76,52.28,5.15,47.73,9.71l1.61,1.62ZM47.56,2l-2.11-.88L43,7.07l2.11.88ZM34.4,14.33l-7.23,2.15,4.6,6L31.57,30l7.1-2.54L45.78,30l-.22-7.56,4.59-6-7.23-2.13L38.65,8.08ZM41,16.94l4,1.18L42.5,21.45l.12,4.2-3.95-1.4-3.94,1.41.11-4.2-2.56-3.32,4-1.19,2.36-3.46Zm29.63,40.9-6.84-4.11V65.85h-7.6V53.72L50.6,57.1,38.75,29.38,26.9,57.11l-5.62-3.38V65.85h-7.6V53.72L6.84,57.84,0,53.72V76.5H3V59.1l3.8,2.29,3.8-2.29v9.8H24.31V59.1l3.8,2.29,3.8-2.29v9.8H45.59V59.1l3.8,2.29,3.8-2.29v9.8H66.86V59.1l3.8,2.29,3.8-2.29V76.5h3V53.72ZM46.55,56.13l-4-2.41V65.85H35V53.72L31.2,56l-.69.42,8.24-19.28,5,11.69h0l.15.39L47,56.39Z"></path>
        </g>
    </g>
</svg>