<svg class="svg-icon logo" viewBox="0 0 195 273" fill="none" xmlns="http://www.w3.org/2000/svg"><path d="M0 0v272.948h116.948l77.949-194.97V0H0z" fill="#ED1C24"/><path fill-rule="evenodd" clip-rule="evenodd" d="M24.814 42.782l7.17 22.449v-.052h6.656l-7.996-23.687c4.539-2.116 6.293-6.348 6.293-13.624 0-11.405-4.437-14.863-12.33-14.863H12.794V65.23h6.294V42.782h5.726zM19.088 18.63h5.571c4.85 0 5.933 3.767 5.933 9.29 0 5.573-1.083 9.289-5.933 9.289h-5.571V18.63z" fill="#fff"/><path d="M46.12 65.231V13.005h20.17v5.625H52.413v17.546H64.38v5.625H52.413v17.753H66.29v5.677H46.12z" fill="#fff"/><path fill-rule="evenodd" clip-rule="evenodd" d="M86.1 65.231c4.178 0 6.965-1.548 8.924-3.664 3.612-3.922 3.663-9.599 3.663-22.449 0-12.85-.051-18.578-3.663-22.449-1.96-2.116-4.746-3.664-8.924-3.664H74.028V65.23H86.1zm-.206-46.55c2.063 0 3.507.775 4.384 1.962 1.91 2.477 2.116 6.554 2.116 18.527 0 11.972-.207 15.998-2.116 18.475-.877 1.135-2.321 1.96-4.384 1.96h-5.572V18.683h5.572z" fill="#fff"/><path d="M106.322 13.005v14.914h6.294V18.63h11.091l-18.623 46.601h6.603l18.778-46.859v-5.367h-24.143z" fill="#fff"/></svg>