<svg xmlns="http://www.w3.org/2000/svg" class="svg-icon rs" viewBox="0 0 84.82 634.41"><defs><style>.cls-1{fill:#3c3c3d}</style></defs><title>Ресурс 8</title><g data-name="Слой 2"><path class="cls-1" d="M27.9 574.22c-15.75 0-26.41 12.38-26.41 29.47v30.71h81.84v-16.71H54.44v-12.26l28.89-21.18v-18.82l-32.11 23.16a25.34 25.34 0 0 0-23.32-14.37zm11.78 43.47H16.24v-14c0-7.55 4.71-12.38 11.66-12.38s11.78 4.58 11.78 12.38zm28.52-78.86H47.49v-28.11H33.23v28.11H16.62v-38.27H1.49v55h81.84v-56.48H68.2zm-26-126C18 412.44 1.24 431.52 1.49 457.4v26.75h81.84V457.4c.38-25.88-17.48-44.96-41.17-44.58zm26 54.62H16.62v-9.91c0-16.72 9.67-27.49 25.55-27.49s26 11 26 27.49zm-7.93-158.21c-11 0-17.86 6.44-23.93 20.19l-4.09 9.29c-3.1 6.94-5.08 9.54-9.42 9.54-5.08 0-7.94-4.33-7.94-10.16 0-6.19 3.1-11.39 9.42-15.6l-8.8-11.39C6.08 316.17 0 325.58 0 338.09c0 15.48 9.18 27.12 23.19 27.12 10.91 0 18-7.31 23.56-19.82l4-8.79c3.6-7.8 5.33-10.4 10.17-10.4 5.58 0 9.05 4.33 9.05 11.64 0 8.92-4.59 14.74-11.9 20.06l8.68 11.52a35.62 35.62 0 0 0 18.1-31.58c-.03-16.34-9.58-28.6-24.58-28.6zM1.49 239.47v55h81.84V238H68.2v39.75H47.49v-28.12H33.23v28.11H16.62v-38.27zm0-68.3l49.6 20.31-49.6 20.43v18.95l83.33-36.53v-5.57L1.49 152.34zm0-85.17v55h81.84V84.53H68.2v39.75H47.49V96.17H33.23v28.11H16.62V86zm0-86v16.72h48.86L0 64.15v5.45h83.33V52.88h-49.1L84.82 5.57V0z" data-name="Слой 1"/></g></svg>