<svg xmlns="http://www.w3.org/2000/svg" class="svg-icon phone" viewBox="0 0 28.5 27.1"><g data-name="Слой 2"><g data-name="Слой 1"><path fill="#ce1e1d" class="cls-1" d="M5.78,18a30.17,30.17,0,0,0,10.1,7.49,16.37,16.37,0,0,0,5.65,1.58h.4a4.8,4.8,0,0,0,3.63-1.48l0,0a14.77,14.77,0,0,1,1.14-1.12c.28-.25.56-.52.84-.79a2.62,2.62,0,0,0,0-4L24,16.27a3,3,0,0,0-2.09-.91,3.06,3.06,0,0,0-2.11.9l-2.12,2L17.08,18c-.24-.11-.46-.22-.65-.34A22.07,22.07,0,0,1,11.06,13a12.17,12.17,0,0,1-1.81-2.74c.56-.48,1.08-1,1.58-1.47l.55-.52a2.82,2.82,0,0,0,1-2,2.79,2.79,0,0,0-1-2L9.61,2.58,9,2c-.39-.38-.8-.77-1.2-1.13A3,3,0,0,0,5.71,0,3.13,3.13,0,0,0,3.6.87L1.38,3A4.22,4.22,0,0,0,0,5.73a9.91,9.91,0,0,0,.82,4.49A25.88,25.88,0,0,0,5.78,18ZM1.47,5.85a2.91,2.91,0,0,1,.94-1.91L4.62,1.85a1.64,1.64,0,0,1,1.09-.48,1.55,1.55,0,0,1,1.07.49c.4.35.77.71,1.17,1.1l.62.6,1.77,1.67a1.49,1.49,0,0,1,.56,1,1.5,1.5,0,0,1-.56,1.05l-.55.53c-.55.53-1.07,1-1.64,1.5l0,0a1.06,1.06,0,0,0-.3,1.25l0,0a13.12,13.12,0,0,0,2.08,3.21,23.32,23.32,0,0,0,5.72,4.93,8.75,8.75,0,0,0,.78.4c.24.11.46.22.65.34l.07,0a1.3,1.3,0,0,0,.58.14,1.29,1.29,0,0,0,.88-.38l2.22-2.1a1.6,1.6,0,0,1,1.08-.5,1.52,1.52,0,0,1,1,.5l3.57,3.38a1.31,1.31,0,0,1,0,2.12c-.25.25-.51.49-.79.75a16.6,16.6,0,0,0-1.24,1.22,3.34,3.34,0,0,1-2.54,1h-.31a14.87,14.87,0,0,1-5.11-1.45A28.67,28.67,0,0,1,6.9,17.15,24.79,24.79,0,0,1,2.22,9.76,8.64,8.64,0,0,1,1.47,5.85Z"></path></g></g></svg>