<svg class="svg-icon logo" viewBox="0 0 195 273" fill="none"
    xmlns="http://www.w3.org/2000/svg">
    <path d="M0 0V272.948H116.948L194.897 77.9779V0H0Z" fill="#ED1C24"></path>
    <path fill-rule="evenodd" clip-rule="evenodd" d="M24.8135 42.782L31.9844 65.231V65.1794H38.6396L30.6436 41.4919C35.1826 39.376 36.9365 35.1442 36.9365 27.8677C36.9365 16.4626 32.5 13.0049 24.6074 13.0049H12.7939V65.231H19.0879V42.782H24.8135ZM19.0879 18.6301H24.6592C29.5088 18.6301 30.5918 22.3973 30.5918 27.9193C30.5918 33.4929 29.5088 37.2086 24.6592 37.2086H19.0879V18.6301Z" fill="white"></path>
    <path d="M46.1191 65.231V13.0049H66.2898V18.6301H52.4128V36.1764H64.381V41.8015H52.4128V59.5543H66.2898V65.231H46.1191Z" fill="white"></path>
    <path fill-rule="evenodd" clip-rule="evenodd" d="M86.0996 65.231C90.2783 65.231 93.0645 63.6828 95.0244 61.567C98.6357 57.6448 98.6875 51.9681 98.6875 39.118C98.6875 26.2679 98.6357 20.5396 95.0244 16.669C93.0645 14.5532 90.2783 13.0049 86.0996 13.0049H74.0283V65.231H86.0996ZM85.8936 18.6817C87.957 18.6817 89.4014 19.4558 90.2783 20.6428C92.1875 23.1199 92.3936 27.1968 92.3936 39.1696C92.3936 51.1424 92.1875 55.1677 90.2783 57.6448C89.4014 58.7802 87.957 59.6059 85.8936 59.6059H80.3223V18.6817H85.8936Z" fill="white"></path>
    <path d="M106.322 13.0049V27.9193H112.616V18.6301H123.707L105.084 65.231H111.687L130.465 18.3721V13.0049H106.322Z" fill="white"></path>
</svg>