<svg xmlns="http://www.w3.org/2000/svg" class="svg-icon rs" viewBox="0 0 84.82 634.41">
	<defs><style>.cls-1{fill:#3c3c3d;}</style></defs><title>Ресурс 8</title>
	<g data-name="Слой 2"><g data-name="Слой 1"><path class="cls-1" d="M27.9,574.22c-15.75,0-26.41,12.38-26.41,29.47v30.71H83.33V617.69H54.44V605.43l28.89-21.18V565.43L51.22,588.59A25.34,25.34,0,0,0,27.9,574.22Zm11.78,43.47H16.24v-14c0-7.55,4.71-12.38,11.66-12.38s11.78,4.58,11.78,12.38ZM68.2,538.83H47.49V510.72H33.23v28.11H16.62V500.56H1.49v55H83.33V499.08H68.2Zm-26-126C18,412.44,1.24,431.52,1.49,457.4v26.75H83.33V457.4C83.71,431.52,65.85,412.44,42.16,412.82Zm26,54.62H16.62v-9.91c0-16.72,9.67-27.49,25.55-27.49s26,11,26,27.49ZM60.27,309.24c-11,0-17.86,6.44-23.93,20.19l-4.09,9.29c-3.1,6.94-5.08,9.54-9.42,9.54-5.08,0-7.94-4.33-7.94-10.16,0-6.19,3.1-11.39,9.42-15.6l-8.8-11.39C6.08,316.17,0,325.58,0,338.09c0,15.48,9.18,27.12,23.19,27.12,10.91,0,18-7.31,23.56-19.82l4-8.79c3.6-7.8,5.33-10.4,10.17-10.4,5.58,0,9.05,4.33,9.05,11.64,0,8.92-4.59,14.74-11.9,20.06l8.68,11.52a35.62,35.62,0,0,0,18.1-31.58C84.82,321.5,75.27,309.24,60.27,309.24ZM1.49,239.47v55H83.33V238H68.2v39.75H47.49V249.63H33.23v28.11H16.62V239.47Zm0-68.3,49.6,20.31L1.49,211.91v18.95l83.33-36.53v-5.57L1.49,152.34ZM1.49,86v55H83.33V84.53H68.2v39.75H47.49V96.17H33.23v28.11H16.62V86Zm0-86V16.72H50.35L0,64.15V69.6H83.33V52.88H34.23L84.82,5.57V0Z"></path></g></g></svg>